# xmcd
#
# Track frame offsets: 
#        150
#        9546
#        18814
#        31192
#        41803
#        52682
#        62373
#        70176
#        79810
#        91050
#        100971
#        111480
#        121438
#        130240
#        141157
#        153988
#        164082
#        174924
#        183710
#        193655
#        205040
#        214978
#        227708
#        237074
#        245924
#
# Disc length: 3371 seconds
#
# Revision: 2
# Processed by: cddbd v1.5.2PL0 Copyright (c) Steve Scherf et al.
# Submitted via: ExactAudioCopyFreeDBPlugin 1.0
#
DISCID=570d2919
DTITLE=Various Artist - Red Hot Rockabilly [CD1]
DYEAR=2010
DGENRE=Rockabilly
TTITLE0=Johnny Burnette - Lonesome Train
TTITLE1=Johnny Restivo - The Shape I'm In
TTITLE2=Hank Mizell - Jungle Rock
TTITLE3=Sonny Fisher - Rockin' Daddy
TTITLE4=Hank Thompson - Rockin' In The Congo
TTITLE5=Jack Scott - Leroy
TTITLE6=Eddie Cochran - Twenty Flight Rock
TTITLE7=Sonny Burgess - Ain't Got A Thing
TTITLE8=Roy Hall - Three Alley Cats
TTITLE9=Billy Lee Riley - Rock With Me Baby
TTITLE10=Dean Beard - Rakin' And Scrapin'
TTITLE11=Roy Orbison - Ooby Dooby
TTITLE12=Elvis Presley - That's All Right
TTITLE13=Sonny Burgess - We Wanna Boogie
TTITLE14=Carl Perkins - Honey Don't
TTITLE15=Mac Curtis - That Ain't Nothing But Right
TTITLE16=Johnny Burnette - Sweet Love On My Mind
TTITLE17=Charlie Feathers - Tongue Tied Jill
TTITLE18=Lew Williams - Cat Talk
TTITLE19=Slim Rhodes - Do What I Do
TTITLE20=Ronnie Self - Pretty Bad Blues
TTITLE21=Andy Starr - Rockin' Rollin' Stone
TTITLE22=Elvis Presley - Blue Moon Of Kentucky
TTITLE23=Curtis Gordon - Mobile Alabama
TTITLE24=The Phantom - Love Me
EXTD=
EXTT0=
EXTT1=
EXTT2=
EXTT3=
EXTT4=
EXTT5=
EXTT6=
EXTT7=
EXTT8=
EXTT9=
EXTT10=
EXTT11=
EXTT12=
EXTT13=
EXTT14=
EXTT15=
EXTT16=
EXTT17=
EXTT18=
EXTT19=
EXTT20=
EXTT21=
EXTT22=
EXTT23=
EXTT24=
PLAYORDER=
